# xmcd
#
# Track frame offsets: 
#        150
#        23225
#        42780
#        59232
#        79965
#        92162
#        107707
#        125435
#        145167
#        165195
#        185032
#
# Disc length: 2795 seconds
#
# Revision: 2
# Processed by: cddbd v1.5.2PL0 Copyright (c) Steve Scherf et al.
# Submitted via: ExactAudioCopyFreeDBPlugin 1.0
#
DISCID=950ae90b
DTITLE=Chet Atkins and Jerry Reed - Sneakin' Around
DYEAR=1992
DGENRE=Country
TTITLE0=Summertime
TTITLE1=Cajun Stripper
TTITLE2=Vaudville Daze
TTITLE3=Here We Are
TTITLE4=The Claw
TTITLE5=First Born
TTITLE6=Major Attempt at a Minor Thing
TTITLE7=Gibson Girl
TTITLE8=Sneakin' Around
TTITLE9=Nifty Fifties
TTITLE10=Here Comes That Girl
EXTD=
EXTT0=
EXTT1=
EXTT2=
EXTT3=
EXTT4=
EXTT5=
EXTT6=
EXTT7=
EXTT8=
EXTT9=
EXTT10=
PLAYORDER=
